<svg width="16" height="15" viewBox="0 0 16 15" fill="none" xmlns="http://www.w3.org/2000/svg">
<path d="M14.025 10.2166L11.9084 9.97497C11.6595 9.94574 11.4072 9.97329 11.1705 10.0556C10.9338 10.1378 10.7188 10.2727 10.5417 10.45L9.00837 11.9833C6.64286 10.7799 4.72009 8.85714 3.5167 6.49164L5.05837 4.94997C5.4167 4.59164 5.5917 4.09164 5.53337 3.5833L5.2917 1.4833C5.24463 1.07671 5.04959 0.701655 4.74375 0.429631C4.43792 0.157606 4.04268 0.00763406 3.63337 0.00830301H2.1917C1.25003 0.00830301 0.466701 0.791636 0.525034 1.7333C0.966701 8.84997 6.65837 14.5333 13.7667 14.975C14.7084 15.0333 15.4917 14.25 15.4917 13.3083V11.8666C15.5 11.025 14.8667 10.3166 14.025 10.2166Z" fill="white"/>
</svg>
